<svg width="55" height="55" viewBox="0 0 55 55" fill="none" xmlns="http://www.w3.org/2000/svg">
<path d="M38.9583 4.58337H16.0416C9.71338 4.58337 4.58331 9.71344 4.58331 16.0417V38.9584C4.58331 45.2866 9.71338 50.4167 16.0416 50.4167H38.9583C45.2866 50.4167 50.4166 45.2866 50.4166 38.9584V16.0417C50.4166 9.71344 45.2866 4.58337 38.9583 4.58337Z" fill="#F5F5F5" stroke="#F5F5F5" stroke-width="2" stroke-linecap="round" stroke-linejoin="round"/>
<path d="M36.6666 26.0563C36.9494 27.9636 36.6237 29.9114 35.7357 31.6228C34.8476 33.3342 33.4426 34.7221 31.7204 35.5889C29.9981 36.4558 28.0464 36.7575 26.1428 36.4512C24.2392 36.1449 22.4807 35.2461 21.1173 33.8827C19.7539 32.5194 18.8552 30.7608 18.5489 28.8572C18.2425 26.9536 18.5443 25.0019 19.4111 23.2797C20.278 21.5575 21.6658 20.1524 23.3772 19.2644C25.0886 18.3764 27.0365 18.0506 28.9437 18.3334C30.8892 18.6219 32.6902 19.5284 34.0809 20.9191C35.4716 22.3098 36.3781 24.1109 36.6666 26.0563Z" stroke="#283C5B" stroke-width="2" stroke-linecap="round" stroke-linejoin="round"/>
<path d="M40.1042 14.8959H40.1275" stroke="#283C5B" stroke-width="2" stroke-linecap="round" stroke-linejoin="round"/>
</svg>
