<svg width="53" height="44" viewBox="0 0 53 44" fill="none" xmlns="http://www.w3.org/2000/svg">
<path d="M51.7083 1.8751C49.5138 3.42306 47.084 4.60701 44.5125 5.38135C43.1323 3.79439 41.298 2.6696 39.2577 2.15909C37.2175 1.64859 35.0696 1.777 33.1047 2.52697C31.1398 3.27693 29.4526 4.61226 28.2714 6.35236C27.0901 8.09246 26.4718 10.1534 26.5 12.2563V14.548C22.4727 14.6524 18.482 13.7592 14.8835 11.948C11.285 10.1367 8.19027 7.46363 5.87496 4.16676C5.87496 4.16676 -3.29171 24.7918 17.3333 33.9584C12.6137 37.1621 6.99136 38.7685 1.29163 38.5418C21.9166 50.0001 47.125 38.5418 47.125 12.1876C47.1228 11.5493 47.0615 10.9125 46.9416 10.2855C49.2805 7.97893 50.931 5.06673 51.7083 1.8751Z" fill="#F5F5F5" stroke="#F5F5F5" stroke-width="2" stroke-linecap="round" stroke-linejoin="round"/>
</svg>
