<svg width="55" height="55" viewBox="0 0 55 55" fill="none" xmlns="http://www.w3.org/2000/svg">
<path d="M51.6541 14.7125C51.3819 13.6249 50.8275 12.6284 50.0468 11.8236C49.2662 11.0188 48.2871 10.4343 47.2083 10.1291C43.2666 9.16663 27.4999 9.16663 27.4999 9.16663C27.4999 9.16663 11.7333 9.16663 7.79159 10.2208C6.71278 10.526 5.73362 11.1105 4.95301 11.9153C4.1724 12.72 3.61798 13.7165 3.34576 14.8041C2.62438 18.8044 2.27151 22.8623 2.29159 26.927C2.26588 31.0224 2.61877 35.1113 3.34576 39.1416C3.64587 40.1954 4.21271 41.154 4.99151 41.9248C5.7703 42.6956 6.73472 43.2524 7.79159 43.5416C11.7333 44.5958 27.4999 44.5958 27.4999 44.5958C27.4999 44.5958 43.2666 44.5958 47.2083 43.5416C48.2871 43.2364 49.2662 42.6519 50.0468 41.8471C50.8275 41.0424 51.3819 40.0459 51.6541 38.9583C52.3699 34.9882 52.7228 30.9611 52.7083 26.927C52.734 22.8317 52.3811 18.7428 51.6541 14.7125Z" fill="#FF0000" stroke="#F5F5F5" stroke-width="2" stroke-linecap="round" stroke-linejoin="round"/>
<path d="M22.3438 34.4209L35.5208 26.9271L22.3438 19.4333V34.4209Z" stroke="#F5F5F5" stroke-width="2" stroke-linecap="round" stroke-linejoin="round"/>
</svg>
